<svg xmlns="http://www.w3.org/2000/svg" viewBox="0 0 75 75">
  <title>complete</title>
  <g id="bfbc36ee-38e6-4b5c-a29d-68405f992a3c" data-name="Layer 2">
    <g id="6556a50e-e490-44f4-b1ed-8c1acca8b9fd" data-name="Layer 1">
      <path d="M62.383,12.535h0A34.42412,34.42412,0,0,0,37.602,2.128,34.60755,34.60755,0,0,0,12.59,12.535,34.58135,34.58135,0,0,0,2.186,37.367,34.66023,34.66023,0,0,0,12.59,62.395,35.48343,35.48343,0,0,0,37.602,72.866,35.307,35.307,0,0,0,62.383,62.395a35.06785,35.06785,0,0,0,0-49.86M37.602,0h0A36.71539,36.71539,0,0,1,63.943,10.997a37.26114,37.26114,0,0,1,0,52.981A36.60427,36.60427,0,0,1,37.602,75,36.91176,36.91176,0,0,1,10.987,63.978,36.92429,36.92429,0,0,1,0,37.367a36.76332,36.76332,0,0,1,10.987-26.37A37.02373,37.02373,0,0,1,37.602,0M32.841,43.873,26.35,37.167a1.17809,1.17809,0,0,0-1.559,0,1.27866,1.27866,0,0,0,0,1.615l7.28,7.476a1.0451,1.0451,0,0,0,.77.396,1.72473,1.72473,0,0,0,.817-.396l16.527-15.96a1.18946,1.18946,0,0,0-1.603-1.736Z" fill="#fff"/>
    </g>
  </g>
</svg>
