<svg xmlns="http://www.w3.org/2000/svg" viewBox="0 0 29.99974 28.58599">
  <title>pin</title>
  <g id="c665baee-cc89-476c-91a1-7e442c4ddca0" data-name="Layer 2">
    <g id="6fbb4256-fa68-4cd9-b90b-181fd56d5946" data-name="Layer 1">
      <path d="M9.992,20.695h0L9.4,20.112,8.256,19.036,3.408,25.27ZM.873,12.008h0a.70679.70679,0,0,1,0-.9.70161.70161,0,0,1,.90594,0l1.303,1.273a21.32561,21.32561,0,0,0,8.419-3.703A47.43085,47.43085,0,0,0,19.063,1.93L18.031.956a.55809.55809,0,0,1,0-.791.64275.64275,0,0,1,.86,0l.962.923.059-.024L28.858,9.56l-.072.075.946.927a.40638.40638,0,0,1,0,.764c-.215.247-.534.247-.874,0l-1-.93a52.2644,52.2644,0,0,0-7.081,7.141,20.57465,20.57465,0,0,0-3.809,8.082l1.279,1.193a.53027.53027,0,0,1,0,.9.68937.68937,0,0,1-.9,0l-6.433-6.155L.873,28.586,0,27.712l7.326-9.56L1.558,12.657h.027ZM19.912,2.831a54.33716,54.33716,0,0,1-7.657,6.831,22.28975,22.28975,0,0,1-8.172,3.677l8.145,7.762,3.713,3.514a23.42522,23.42522,0,0,1,3.863-7.742A43.80671,43.80671,0,0,1,26.987,9.56Z" fill="#fff"/>
    </g>
  </g>
</svg>
