<svg xmlns="http://www.w3.org/2000/svg" viewBox="0 0 28.38336 28.38422">
  <title>plus</title>
  <g id="5e7bedfd-d217-4641-8b36-1b49c363a558" data-name="Layer 2">
    <g id="797c74c0-5de0-4f30-97ca-b4953378ee4d" data-name="Layer 1">
      <path d="M14.19619,1.33128h0a12.59441,12.59441,0,0,0-9.171,3.752,12.50828,12.50828,0,0,0-3.701,9.12,12.54235,12.54235,0,0,0,3.704,9.091,12.60976,12.60976,0,0,0,9.159,3.771,12.956,12.956,0,0,0,12.871-12.872,12.62858,12.62858,0,0,0-3.775-9.153A12.55852,12.55852,0,0,0,14.19619,1.33128Zm4.723,12.862h0a.39956.39956,0,0,1-.463.462l-3.812.003-.001,3.81c.011.31-.199.52-.462.462-.307,0-.505-.198-.448-.449l-.002-3.84-3.821.017c-.308.001-.508-.2-.462-.462-.052-.257.158-.467.462-.462l3.817.007-.004-3.819a.40784.40784,0,0,1,.462-.463c.253-.037.454.164.462.462l.003,3.801,3.82.022C18.71221,13.69627,18.91021,13.89427,18.91921,14.19328Zm-14.443-9.659a13.5066,13.5066,0,0,1,9.72-4.033,13.4325,13.4325,0,0,1,9.654,3.971,13.48652,13.48652,0,0,1,4.032,9.715,13.66537,13.66537,0,0,1-13.695,13.696,13.63483,13.63483,0,0,1-13.686-13.686A13.42647,13.42647,0,0,1,4.47622,4.53425Z" fill="none" stroke="#0055b8" stroke-miterlimit="10"/>
    </g>
  </g>
</svg>
