<svg xmlns="http://www.w3.org/2000/svg" viewBox="0 0 32 32.001">
  <title>search</title>
  <g id="0c59dd73-30da-4b27-930a-7b1dff0142ff" data-name="Layer 2">
    <g id="af9eefd6-d201-4b66-be55-ab66780234d2" data-name="Layer 1">
      <path d="M0,12A11.99364,11.99364,0,0,0,17.617,22.6l8.341,8.34-.002.002a3.52582,3.52582,0,1,0,4.986-4.986l.007-.006-8.344-8.342A11.99851,11.99851,0,1,0,0,12Zm19.142,9.629a12.101,12.101,0,0,0,2.494-2.498l8.066,8.066-.009.008a1.75935,1.75935,0,1,1-2.488,2.487ZM2,12.001a10,10,0,1,1,10,10A10.00173,10.00173,0,0,1,2,12.001ZM19,12a.5.5,0,1,1-1,0,6.00027,6.00027,0,0,0-6-6,.5.5,0,0,1,0-1A6.99935,6.99935,0,0,1,19,12Z" fill="#fff"/>
    </g>
  </g>
</svg>
