<svg xmlns="http://www.w3.org/2000/svg" viewBox="0 0 27.414 26.18298">
  <title>tasks</title>
  <g id="82387c9c-e71b-42ba-a1f1-7d3a06609405" data-name="Layer 2">
    <g id="1e27cc50-dc7d-4752-ac85-d0605de4ea90" data-name="Layer 1">
      <path d="M.523,17.801h0A.489.489,0,0,1,0,17.305a.50024.50024,0,0,1,.523-.527H19.125a.48373.48373,0,0,1,.498.527.47135.47135,0,0,1-.498.496Zm0-8.388h0a.51211.51211,0,1,1,0-1.024H19.125a.48084.48084,0,0,1,.498.526.4756.4756,0,0,1-.498.498Zm0,16.77h0A.55513.55513,0,0,1,0,25.685a.49023.49023,0,0,1,.523-.494h26.39a.47057.47057,0,0,1,.501.494.53011.53011,0,0,1-.501.498Zm0-25.164A.497.497,0,0,1,0,.496.48953.48953,0,0,1,.523,0h26.39a.47006.47006,0,0,1,.501.496.47861.47861,0,0,1-.501.523Z" fill="#fff"/>
    </g>
  </g>
</svg>
